<svg width="1920" height="1080" viewBox="0 0 1920 1080" fill="none" xmlns="http://www.w3.org/2000/svg">
<path fill-rule="evenodd" clip-rule="evenodd" d="M237.999 1080L456.999 1080C539.5 911.501 185.499 774.501 432.316 561.501C614.611 404.182 960.829 356.026 1117.5 346.501C1668.5 313.001 2121.5 238.001 1924.5 0.00110068L432.316 0.00104384L-0.00065756 0.00106274L-0.000654937 60.0011C-0.000652314 120.001 -0.000647069 240.001 -0.000641824 360.001C-0.000636578 480.001 -0.000631333 600.001 -0.000626088 720.001C-0.000620842 840.001 -0.000615597 960.001 -0.000612974 1020L-0.000610352 1080L237.999 1080Z" fill="#F23545"/>
<path fill-rule="evenodd" clip-rule="evenodd" d="M362.997 1080H546C770.5 962.501 244.989 436.998 493.499 325.001C716.499 224.501 1670 726.001 1923 90.0013L1923 0.000366211L-3.00054 0.000328329L-3.00053 90.0013C-3.00053 180.001 -3.00052 360.001 -3.00051 540.001C-3.0005 720.001 -3.0005 900.001 -3.00049 990.001L-3.00049 1080L362.997 1080Z" fill="#720001" fill-opacity="0.5"/>
</svg>
