<svg width="1920" height="1080" viewBox="0 0 1920 1080" fill="none" xmlns="http://www.w3.org/2000/svg">
<g clip-path="url(#clip0_294_4)">
<rect width="1920" height="1080" fill="white"/>
<path fill-rule="evenodd" clip-rule="evenodd" d="M237.999 -5.16201e-06L456.999 -5.16201e-06C539.5 168.5 185.499 305.5 432.316 518.5C614.611 675.819 960.829 723.975 1117.5 733.5C1668.5 767 2121.5 842 1924.5 1080L432.316 1080L-0.00065756 1080L-0.000654937 1020C-0.000652314 960 -0.000647069 840 -0.000641824 720C-0.000636578 600 -0.000631333 480 -0.000626088 360C-0.000620842 240 -0.000615597 120 -0.000612974 60L-0.000610352 -4.89446e-06L237.999 -5.16201e-06Z" fill="#F23545"/>
<path fill-rule="evenodd" clip-rule="evenodd" d="M362.997 8.88264e-07L546 8.88264e-07C770.5 117.5 244.989 643.003 493.499 755C716.5 855.5 1670 354 1923 990L1923 1080L-3.00054 1080L-3.00053 990C-3.00053 900 -3.00052 720 -3.00051 540C-3.0005 360 -3.0005 180 -3.00049 90.0001L-3.00049 0.000119358L362.997 8.88264e-07Z" fill="#720001" fill-opacity="0.5"/>
</g>
<defs>
<clipPath id="clip0_294_4">
<rect width="1920" height="1080" fill="white"/>
</clipPath>
</defs>
</svg>
