<svg width="468" height="468" viewBox="0 0 468 468" fill="none" xmlns="http://www.w3.org/2000/svg">
<mask id="mask0_512_1416" style="mask-type:alpha" maskUnits="userSpaceOnUse" x="0" y="0" width="468" height="468">
<circle cx="233.699" cy="233.699" r="233.699" fill="#C4C4C4"/>
</mask>
<g mask="url(#mask0_512_1416)">
<circle cx="233.699" cy="233.699" r="233.699" fill="#E05554"/>
</g>
<path d="M364.453 326.587C357.323 309.7 346.978 294.361 333.991 281.424C321.045 268.451 305.708 258.106 288.829 250.963C288.678 250.888 288.527 250.85 288.375 250.774C311.92 233.768 327.227 206.065 327.227 174.811C327.227 123.034 285.276 81.084 233.5 81.084C181.724 81.084 139.773 123.034 139.773 174.811C139.773 206.065 155.08 233.768 178.625 250.812C178.473 250.888 178.322 250.926 178.171 251.001C161.24 258.144 146.047 268.386 133.008 281.462C120.034 294.409 109.69 309.745 102.547 326.625C95.53 343.15 91.7454 360.867 91.3984 378.817C91.3883 379.22 91.4591 379.622 91.6065 379.997C91.7539 380.373 91.975 380.715 92.2568 381.004C92.5385 381.293 92.8753 381.522 93.2471 381.679C93.6189 381.836 94.0184 381.916 94.4218 381.916H117.098C118.761 381.916 120.083 380.593 120.121 378.968C120.877 349.792 132.593 322.468 153.303 301.757C174.732 280.329 203.19 268.537 233.5 268.537C263.81 268.537 292.268 280.329 313.697 301.757C334.407 322.468 346.123 349.792 346.879 378.968C346.917 380.631 348.239 381.916 349.902 381.916H372.578C372.982 381.916 373.381 381.836 373.753 381.679C374.125 381.522 374.461 381.293 374.743 381.004C375.025 380.715 375.246 380.373 375.393 379.997C375.541 379.622 375.612 379.22 375.602 378.817C375.224 360.752 371.482 343.178 364.453 326.587ZM233.5 239.814C216.153 239.814 199.826 233.05 187.544 220.767C175.261 208.484 168.496 192.158 168.496 174.811C168.496 157.464 175.261 141.137 187.544 128.854C199.826 116.572 216.153 109.807 233.5 109.807C250.847 109.807 267.173 116.572 279.456 128.854C291.739 141.137 298.504 157.464 298.504 174.811C298.504 192.158 291.739 208.484 279.456 220.767C267.173 233.05 250.847 239.814 233.5 239.814Z" fill="white"/>
</svg>
