<svg width="58" height="58" viewBox="0 0 58 58" fill="none" xmlns="http://www.w3.org/2000/svg">
<path d="M26.9546 6.24219C25.0197 6.24219 23.4174 7.84455 23.4174 9.77942H12.8057V50.4576H44.6408V9.77942H34.0291C34.0291 7.84455 32.4267 6.24219 30.4918 6.24219H26.9546ZM26.9546 9.77942H30.4918V13.3167H26.9546V9.77942ZM16.3429 13.3167H23.4174V16.8539H34.0291V13.3167H41.1035V46.9204H16.3429V13.3167ZM28.7232 20.3911C24.8323 20.3911 21.6488 23.5746 21.6488 27.4656C21.6488 29.4341 22.4924 31.2098 23.8047 32.4955C22.6008 33.3079 21.6139 34.4024 20.9299 35.6835C20.2458 36.9646 19.8855 38.3936 19.8801 39.8459H23.4174C23.4174 36.8959 25.7732 34.5401 28.7232 34.5401C31.6733 34.5401 34.0291 36.8959 34.0291 39.8459H37.5663C37.561 38.3936 37.2006 36.9646 36.5166 35.6835C35.8325 34.4024 34.8456 33.3079 33.6417 32.4955C34.9541 31.2098 35.7977 29.4358 35.7977 27.4656C35.7977 23.5746 32.6142 20.3911 28.7232 20.3911ZM28.7232 23.9284C30.6988 23.9284 32.2605 25.49 32.2605 27.4656C32.2605 29.4411 30.6988 31.0028 28.7232 31.0028C26.7477 31.0028 25.186 29.4411 25.186 27.4656C25.186 25.49 26.7477 23.9284 28.7232 23.9284Z" fill="#A81F2B"/>
</svg>
