<svg width="57" height="57" viewBox="0 0 57 57" fill="none" xmlns="http://www.w3.org/2000/svg">
<path d="M49.5218 23.6667C50.1472 23.6667 50.747 23.4182 51.1892 22.976C51.6315 22.5337 51.8799 21.9339 51.8799 21.3085V14.234C51.8799 13.7392 51.7241 13.257 51.4346 12.8557C51.145 12.4545 50.7365 12.1545 50.2669 11.9985L29.0435 4.92405C28.5598 4.76327 28.037 4.76327 27.5532 4.92405L6.32978 11.9985C5.86021 12.1545 5.45168 12.4545 5.16216 12.8557C4.87264 13.257 4.71682 13.7392 4.7168 14.234V21.3085C4.7168 21.9339 4.96524 22.5337 5.40748 22.976C5.84972 23.4182 6.44953 23.6667 7.07495 23.6667H9.43311V40.6077C8.05757 41.0922 6.86574 41.9906 6.02127 43.1796C5.17681 44.3686 4.72113 45.7899 4.7168 47.2482V51.9645C4.7168 52.59 4.96524 53.1898 5.40748 53.632C5.84972 54.0742 6.44953 54.3227 7.07495 54.3227H49.5218C50.1472 54.3227 50.747 54.0742 51.1892 53.632C51.6315 53.1898 51.8799 52.59 51.8799 51.9645V47.2482C51.8756 45.7899 51.4199 44.3686 50.5754 43.1796C49.731 41.9906 48.5392 41.0922 47.1636 40.6077V23.6667H49.5218ZM47.1636 49.6064H9.43311V47.2482C9.43373 46.623 9.68238 46.0236 10.1245 45.5814C10.5666 45.1393 11.166 44.8907 11.7913 44.8901H44.8055C45.4307 44.8907 46.0301 45.1393 46.4722 45.5814C46.9143 46.0236 47.163 46.623 47.1636 47.2482V49.6064ZM14.1494 40.1738V23.6667H18.8657V40.1738H14.1494ZM23.582 40.1738V23.6667H33.0147V40.1738H23.582ZM37.731 40.1738V23.6667H42.4473V40.1738H37.731ZM9.43311 18.9504V15.9319L28.2984 9.64507L47.1636 15.9343V18.9504H9.43311Z" fill="#A81F2B"/>
</svg>
