<svg width="56" height="56" viewBox="0 0 56 56" fill="none" xmlns="http://www.w3.org/2000/svg">
<path d="M46.6255 41.306C45.6103 38.9014 44.1372 36.7172 42.288 34.8751C40.4445 33.0277 38.2607 31.5548 35.8571 30.5377C35.8356 30.5269 35.8141 30.5215 35.7926 30.5108C39.1452 28.0891 41.3247 24.1445 41.3247 19.694C41.3247 12.3213 35.3513 6.3479 27.9787 6.3479C20.606 6.3479 14.6326 12.3213 14.6326 19.694C14.6326 24.1445 16.8121 28.0891 20.1647 30.5161C20.1432 30.5269 20.1217 30.5323 20.1002 30.543C17.6893 31.5601 15.5259 33.0185 13.6693 34.8805C11.8219 36.724 10.3489 38.9079 9.33181 41.3114C8.33259 43.6645 7.79369 46.1873 7.74428 48.7432C7.74284 48.8007 7.75291 48.8578 7.7739 48.9113C7.7949 48.9648 7.82638 49.0135 7.8665 49.0546C7.90662 49.0957 7.95457 49.1284 8.00752 49.1507C8.06046 49.173 8.11734 49.1845 8.17479 49.1845H11.4037C11.6405 49.1845 11.8288 48.9962 11.8342 48.7647C11.9418 44.6102 13.6101 40.7194 16.5591 37.7704C19.6104 34.7191 23.6627 33.0401 27.9787 33.0401C32.2946 33.0401 36.3469 34.7191 39.3982 37.7704C42.3472 40.7194 44.0155 44.6102 44.1231 48.7647C44.1285 49.0015 44.3168 49.1845 44.5536 49.1845H47.7825C47.84 49.1845 47.8968 49.173 47.9498 49.1507C48.0027 49.1284 48.0507 49.0957 48.0908 49.0546C48.1309 49.0135 48.1624 48.9648 48.1834 48.9113C48.2044 48.8578 48.2145 48.8007 48.213 48.7432C48.1592 46.1709 47.6265 43.6685 46.6255 41.306ZM27.9787 28.9501C25.5086 28.9501 23.1838 27.9868 21.4348 26.2379C19.6858 24.4889 18.7225 22.1641 18.7225 19.694C18.7225 17.2239 19.6858 14.8991 21.4348 13.1501C23.1838 11.4011 25.5086 10.4378 27.9787 10.4378C30.4488 10.4378 32.7736 11.4011 34.5225 13.1501C36.2715 14.8991 37.2348 17.2239 37.2348 19.694C37.2348 22.1641 36.2715 24.4889 34.5225 26.2379C32.7736 27.9868 30.4488 28.9501 27.9787 28.9501Z" fill="#A81F2B"/>
</svg>
